<?xml version="1.0" encoding="UTF-8" ?>
<!DOCTYPE svg PUBLIC "-//W3C//DTD SVG 1.1//EN" "http://www.w3.org/Graphics/SVG/1.1/DTD/svg11.dtd">
<svg width="303pt" height="34pt" viewBox="0 0 303 34" version="1.1" xmlns="http://www.w3.org/2000/svg">
<path fill="#ffffff" d=" M 0.00 0.00 L 303.00 0.00 L 303.00 23.18 C 300.00 17.58 293.07 17.46 287.93 15.09 C 286.25 14.55 285.49 12.30 287.26 11.35 C 291.44 9.21 296.19 11.36 300.17 13.00 C 300.56 11.48 302.53 9.84 301.67 8.33 C 297.63 5.73 292.65 4.65 287.90 5.26 C 284.50 5.68 281.19 7.84 279.90 11.08 C 278.76 13.80 279.79 17.19 282.25 18.81 C 286.21 21.79 291.60 21.64 295.68 24.35 C 297.41 25.71 295.58 27.95 293.96 28.24 C 289.37 29.47 284.87 27.29 280.55 26.04 C 280.37 27.69 280.19 29.33 280.02 30.97 C 283.19 32.58 286.60 33.78 290.18 34.00 L 221.85 34.00 C 229.29 32.83 235.48 25.74 234.54 18.06 C 233.97 9.26 224.41 2.51 215.93 5.11 C 207.81 7.04 202.79 16.41 205.71 24.26 C 207.54 29.57 212.64 33.35 218.16 34.00 L 156.83 34.00 C 163.70 33.15 169.86 27.13 169.86 20.04 C 170.57 11.88 163.13 4.28 154.98 4.61 C 146.93 4.50 139.56 11.97 140.27 20.09 C 140.33 26.91 145.91 32.43 152.28 34.00 L 61.72 34.00 C 68.04 32.34 73.65 26.88 73.67 20.05 C 74.33 11.95 67.06 4.47 59.00 4.60 C 50.87 4.34 43.38 11.85 44.10 20.03 C 44.05 26.92 49.80 32.52 56.23 34.00 L 28.32 34.00 C 33.28 24.71 37.54 15.06 42.26 5.65 C 40.19 5.65 38.10 5.55 36.03 5.83 C 33.12 10.97 30.92 16.49 28.47 21.86 C 25.31 17.62 24.45 12.09 21.10 8.00 C 17.97 12.21 16.65 17.54 14.04 22.10 C 11.41 16.89 9.35 11.40 6.52 6.31 C 4.81 4.93 2.10 5.96 0.00 5.69 L 0.00 0.00 Z" />
<path fill="#387c2c" d=" M 44.10 20.03 C 43.38 11.85 50.87 4.34 59.00 4.60 C 67.06 4.47 74.33 11.95 73.67 20.05 C 73.65 26.88 68.04 32.34 61.72 34.00 L 56.23 34.00 C 49.80 32.52 44.05 26.92 44.10 20.03 Z" />
<path fill="#387c2c" d=" M 140.27 20.09 C 139.56 11.97 146.93 4.50 154.98 4.61 C 163.13 4.28 170.57 11.88 169.86 20.04 C 169.86 27.13 163.70 33.15 156.83 34.00 L 152.28 34.00 C 145.91 32.43 140.33 26.91 140.27 20.09 Z" />
<path fill="#387c2c" d=" M 205.71 24.26 C 202.79 16.41 207.81 7.04 215.93 5.11 C 224.41 2.51 233.97 9.26 234.54 18.06 C 235.48 25.74 229.29 32.83 221.85 34.00 L 218.16 34.00 C 212.64 33.35 207.54 29.57 205.71 24.26 Z" />
<path fill="#387c2c" d=" M 279.90 11.08 C 281.19 7.84 284.50 5.68 287.90 5.26 C 292.65 4.65 297.63 5.73 301.67 8.33 C 302.53 9.84 300.56 11.48 300.17 13.00 C 296.19 11.36 291.44 9.21 287.26 11.35 C 285.49 12.30 286.25 14.55 287.93 15.09 C 293.07 17.46 300.00 17.58 303.00 23.18 L 303.00 26.84 C 301.62 31.25 297.23 33.68 292.83 34.00 L 290.18 34.00 C 286.60 33.78 283.19 32.58 280.02 30.97 C 280.19 29.33 280.37 27.69 280.55 26.04 C 284.87 27.29 289.37 29.47 293.96 28.24 C 295.58 27.95 297.41 25.71 295.68 24.35 C 291.60 21.64 286.21 21.79 282.25 18.81 C 279.79 17.19 278.76 13.80 279.90 11.08 Z" />
<path fill="#387c2c" d=" M 0.00 5.69 C 2.10 5.96 4.81 4.93 6.52 6.31 C 9.35 11.40 11.41 16.89 14.04 22.10 C 16.65 17.54 17.97 12.21 21.10 8.00 C 24.45 12.09 25.31 17.62 28.47 21.86 C 30.92 16.49 33.12 10.97 36.03 5.83 C 38.10 5.55 40.19 5.65 42.26 5.65 C 37.54 15.06 33.28 24.71 28.32 34.00 L 27.54 34.00 C 25.87 29.15 23.35 24.66 21.08 20.08 C 18.75 24.69 16.75 29.47 14.26 34.00 L 13.43 34.00 C 9.35 24.60 4.89 15.32 0.00 6.31 L 0.00 5.69 Z" />
<path fill="#387c2c" d=" M 79.90 5.72 C 84.89 5.68 89.90 5.50 94.89 5.76 C 101.20 6.36 105.99 13.57 103.66 19.58 C 102.90 22.17 100.96 24.12 98.75 25.54 C 100.88 28.22 103.56 30.37 105.83 32.93 C 103.26 33.07 100.66 33.41 98.10 33.00 C 95.62 31.56 94.11 28.93 91.81 27.25 C 89.88 26.70 87.83 26.99 85.86 26.94 C 85.85 28.98 85.85 31.02 85.88 33.06 C 83.89 33.01 81.91 32.99 79.92 33.00 C 79.85 23.91 79.90 14.81 79.90 5.72 Z" />
<path fill="#387c2c" d=" M 112.09 5.70 C 114.08 5.67 116.07 5.68 118.06 5.70 C 118.11 9.55 118.07 13.40 117.98 17.25 C 122.33 13.77 125.67 9.16 130.07 5.76 C 132.64 5.49 135.23 5.66 137.80 5.75 C 133.97 10.51 128.81 14.26 125.15 19.04 C 129.32 23.94 134.38 28.12 138.68 32.94 C 136.00 32.96 132.99 33.91 130.48 32.73 C 126.15 28.91 122.46 24.42 118.04 20.70 C 118.05 24.84 118.12 28.98 118.04 33.11 C 116.05 33.07 114.07 33.04 112.09 33.04 C 112.22 23.93 112.23 14.81 112.09 5.70 Z" />
<path fill="#387c2c" d=" M 175.83 5.69 C 180.53 5.67 185.24 5.56 189.94 5.70 C 194.94 5.80 199.40 9.99 200.02 14.92 C 200.80 20.06 197.16 25.42 192.10 26.62 C 188.67 27.17 185.17 26.86 181.71 26.96 C 181.69 28.97 181.68 30.99 181.67 33.00 C 179.73 33.01 177.80 33.04 175.87 33.09 C 175.73 23.96 175.80 14.83 175.83 5.69 Z" />
<path fill="#387c2c" d=" M 240.86 5.69 C 242.86 5.66 244.86 5.69 246.86 5.74 C 246.65 12.97 246.81 20.21 246.74 27.45 C 250.73 27.64 254.74 27.26 258.72 27.79 C 258.67 29.51 258.65 31.22 258.65 32.94 C 252.77 33.48 246.85 33.07 240.95 33.13 C 240.75 23.98 240.91 14.84 240.86 5.69 Z" />
<path fill="#387c2c" d=" M 266.24 5.79 C 268.21 5.70 270.19 5.64 272.18 5.67 C 272.21 14.84 272.27 24.02 272.14 33.19 C 270.18 33.15 268.21 33.09 266.25 33.04 C 266.40 23.96 266.42 14.87 266.24 5.79 Z" />
<path fill="#ffffff" d=" M 0.00 6.31 C 4.89 15.32 9.35 24.60 13.43 34.00 L 0.00 34.00 L 0.00 6.31 Z" />
<path fill="#ffffff" d=" M 55.19 11.30 C 60.61 8.49 67.76 12.96 67.56 19.08 C 68.13 25.42 60.56 30.43 54.99 27.21 C 48.57 24.31 48.70 14.04 55.19 11.30 Z" />
<path fill="#ffffff" d=" M 151.24 11.36 C 157.02 8.21 164.71 13.54 163.73 20.06 C 163.64 26.43 155.43 30.55 150.30 26.69 C 144.73 23.33 145.32 14.04 151.24 11.36 Z" />
<path fill="#ffffff" d=" M 216.20 11.24 C 221.93 8.36 229.25 13.57 228.40 19.93 C 228.40 26.60 219.63 30.77 214.53 26.38 C 209.27 22.73 210.24 13.66 216.20 11.24 Z" />
<path fill="#ffffff" d=" M 85.84 11.65 C 89.16 11.75 92.68 11.00 95.85 12.18 C 99.18 13.83 99.03 19.09 95.63 20.57 C 92.47 21.48 89.11 20.99 85.87 21.06 C 85.81 17.92 85.79 14.79 85.84 11.65 Z" />
<path fill="#ffffff" d=" M 181.71 11.67 C 185.07 11.74 188.63 10.99 191.84 12.23 C 195.07 13.93 194.87 19.04 191.56 20.54 C 188.39 21.48 185.01 20.98 181.75 21.06 C 181.69 17.93 181.69 14.80 181.71 11.67 Z" />
<path fill="#ffffff" d=" M 14.26 34.00 C 16.75 29.47 18.75 24.69 21.08 20.08 C 23.35 24.66 25.87 29.15 27.54 34.00 L 14.26 34.00 Z" />
<path fill="#ffffff" d=" M 292.83 34.00 C 297.23 33.68 301.62 31.25 303.00 26.84 L 303.00 34.00 L 292.83 34.00 Z" />
</svg>
