<?xml version="1.0" encoding="UTF-8" ?>
<!DOCTYPE svg PUBLIC "-//W3C//DTD SVG 1.1//EN" "http://www.w3.org/Graphics/SVG/1.1/DTD/svg11.dtd">
<svg width="169pt" height="62pt" viewBox="0 0 169 62" version="1.1" xmlns="http://www.w3.org/2000/svg">
<path fill="#ffffff" d=" M 0.00 0.00 L 94.41 0.00 C 94.50 9.78 94.29 19.57 94.54 29.35 C 93.04 29.37 91.54 29.41 90.05 29.45 C 90.07 23.72 90.22 17.99 89.97 12.27 C 88.60 12.25 87.24 12.23 85.88 12.20 C 85.67 15.25 85.66 18.30 85.74 21.35 C 85.50 28.64 85.47 35.94 85.68 43.23 L 87.11 43.31 C 87.83 43.33 89.27 43.38 89.99 43.40 C 91.55 43.44 93.10 43.47 94.66 43.52 C 95.95 43.57 97.23 43.64 98.52 43.74 C 100.07 43.87 101.61 44.04 103.15 44.21 C 106.03 44.50 108.91 44.79 111.79 45.12 C 113.23 45.29 114.67 45.48 116.11 45.69 C 117.60 45.92 119.08 46.18 120.56 46.45 C 122.00 46.71 123.44 46.97 124.87 47.26 C 127.86 47.86 130.84 48.55 133.80 49.28 C 135.13 49.62 136.45 49.97 137.77 50.36 C 139.25 50.81 140.72 51.31 142.20 51.78 C 143.69 52.26 145.19 52.72 146.69 53.18 C 146.55 48.53 146.55 43.87 146.69 39.22 C 145.21 39.17 143.73 39.11 142.26 39.04 C 142.23 34.09 142.32 29.13 142.20 24.18 C 140.78 24.18 139.36 24.18 137.94 24.17 C 137.92 26.18 137.90 28.19 137.88 30.21 C 136.40 30.35 134.91 30.49 133.44 30.65 C 133.53 32.34 133.62 34.03 133.67 35.72 C 130.72 35.72 127.77 35.74 124.83 35.76 C 124.89 27.37 124.69 18.97 124.96 10.59 C 123.48 10.54 122.00 10.50 120.53 10.44 C 120.52 17.06 120.48 23.68 120.58 30.29 C 119.10 30.31 117.63 30.33 116.16 30.36 C 116.17 26.29 116.21 22.22 116.13 18.15 C 114.69 18.15 113.25 18.16 111.81 18.16 C 111.79 21.19 111.80 24.22 111.81 27.26 C 108.91 27.31 106.00 27.32 103.10 27.29 C 103.06 25.97 103.01 24.66 102.97 23.34 C 101.55 23.35 100.13 23.36 98.72 23.38 C 98.81 15.58 98.63 7.79 98.83 0.00 L 169.00 0.00 L 169.00 62.00 L 0.00 62.00 L 0.00 0.00 Z" />
<path fill="#7bc143" d=" M 94.41 0.00 L 98.83 0.00 C 98.63 7.79 98.81 15.58 98.72 23.38 C 98.59 30.16 98.84 36.95 98.52 43.74 C 97.23 43.64 95.95 43.57 94.66 43.52 C 94.51 38.80 94.62 34.07 94.54 29.35 C 94.29 19.57 94.50 9.78 94.41 0.00 Z" />
<path fill="#439639" d=" M 120.53 10.44 C 122.00 10.50 123.48 10.54 124.96 10.59 C 124.69 18.97 124.89 27.37 124.83 35.76 C 124.81 39.59 124.82 43.42 124.87 47.26 C 123.44 46.97 122.00 46.71 120.56 46.45 C 120.66 41.06 120.66 35.68 120.58 30.29 C 120.48 23.68 120.52 17.06 120.53 10.44 Z" />
<path fill="#35bdb2" d=" M 85.88 12.20 C 87.24 12.23 88.60 12.25 89.97 12.27 C 90.22 17.99 90.07 23.72 90.05 29.45 C 90.07 34.10 90.12 38.75 89.99 43.40 C 89.27 43.38 87.83 43.33 87.11 43.31 C 87.00 36.58 87.49 29.80 86.90 23.10 C 86.61 22.66 86.03 21.79 85.74 21.35 C 85.66 18.30 85.67 15.25 85.88 12.20 Z" />
<path fill="#00b1b2" d=" M 50.84 12.82 C 52.32 12.81 53.80 12.80 55.28 12.79 C 55.32 18.30 55.28 23.80 55.27 29.31 C 55.32 34.39 55.30 39.47 55.37 44.54 C 53.88 44.75 52.38 44.97 50.89 45.19 C 50.79 37.08 50.86 28.97 50.89 20.86 C 50.88 18.18 50.85 15.50 50.84 12.82 Z" />
<path fill="#0081c6" d=" M 72.68 17.86 C 74.13 17.89 75.58 17.92 77.03 17.95 C 76.99 19.61 76.97 21.26 76.99 22.92 C 77.13 29.71 77.06 36.51 77.06 43.30 C 75.61 43.32 74.16 43.35 72.71 43.39 C 72.63 39.63 72.62 35.88 72.66 32.12 C 72.68 27.36 72.61 22.61 72.68 17.86 Z" />
<path fill="#00a3e3" d=" M 111.81 18.16 C 113.25 18.16 114.69 18.15 116.13 18.15 C 116.21 22.22 116.17 26.29 116.16 30.36 C 116.21 35.47 116.29 40.58 116.11 45.69 C 114.67 45.48 113.23 45.29 111.79 45.12 C 111.73 39.17 111.75 33.21 111.81 27.26 C 111.80 24.22 111.79 21.19 111.81 18.16 Z" />
<path fill="#439639" d=" M 42.18 21.02 C 45.08 20.85 47.99 20.82 50.89 20.86 C 50.86 28.97 50.79 37.08 50.89 45.19 C 48.09 45.50 45.31 45.95 42.54 46.39 C 42.11 40.86 42.36 35.31 42.25 29.77 C 42.24 26.85 42.25 23.94 42.18 21.02 Z" />
<path fill="#01bac0" d=" M 85.74 21.35 C 86.03 21.79 86.61 22.66 86.90 23.10 C 87.49 29.80 87.00 36.58 87.11 43.31 L 85.68 43.23 C 85.47 35.94 85.50 28.64 85.74 21.35 Z" />
<path fill="#c1d82f" d=" M 76.99 22.92 C 79.68 22.87 82.37 22.93 85.06 23.09 C 85.12 29.78 85.21 36.46 85.06 43.15 C 82.39 43.28 79.73 43.34 77.06 43.30 C 77.06 36.51 77.13 29.71 76.99 22.92 Z" />
<path fill="#377b2b" d=" M 98.72 23.38 C 100.13 23.36 101.55 23.35 102.97 23.34 C 103.01 24.66 103.06 25.97 103.10 27.29 C 103.22 32.93 103.17 38.57 103.15 44.21 C 101.61 44.04 100.07 43.87 98.52 43.74 C 98.84 36.95 98.59 30.16 98.72 23.38 Z" />
<path fill="#00a94f" d=" M 137.94 24.17 C 139.36 24.18 140.78 24.18 142.20 24.18 C 142.32 29.13 142.23 34.09 142.26 39.04 C 142.31 43.29 142.31 47.54 142.20 51.78 C 140.72 51.31 139.25 50.81 137.77 50.36 C 137.85 43.64 137.76 36.92 137.88 30.21 C 137.90 28.19 137.92 26.18 137.94 24.17 Z" />
<path fill="#7bc143" d=" M 20.36 25.34 C 21.84 25.31 23.31 25.28 24.79 25.25 C 24.78 26.79 24.76 28.33 24.74 29.87 C 24.68 36.75 24.72 43.62 24.84 50.50 C 23.47 50.89 22.06 51.17 20.67 51.46 C 20.57 47.32 20.58 43.19 20.51 39.05 C 20.41 34.48 20.52 29.91 20.36 25.34 Z" />
<path fill="#387c2c" d=" M 59.50 26.51 C 62.49 26.19 65.49 26.17 68.47 26.54 C 68.38 28.38 68.30 30.23 68.28 32.07 C 68.23 35.90 68.28 39.72 68.33 43.55 C 65.45 43.69 62.57 43.92 59.71 44.24 C 59.54 39.25 59.70 34.26 59.62 29.27 C 59.59 28.58 59.53 27.20 59.50 26.51 Z" />
<path fill="#c1d82f" d=" M 103.10 27.29 C 106.00 27.32 108.91 27.31 111.81 27.26 C 111.75 33.21 111.73 39.17 111.79 45.12 C 108.91 44.79 106.03 44.50 103.15 44.21 C 103.17 38.57 103.22 32.93 103.10 27.29 Z" />
<path fill="#7fc242" d=" M 55.27 29.31 C 56.72 29.30 58.17 29.29 59.62 29.27 C 59.70 34.26 59.54 39.25 59.71 44.24 C 58.26 44.34 56.81 44.43 55.37 44.54 C 55.30 39.47 55.32 34.39 55.27 29.31 Z" />
<path fill="#00a850" d=" M 90.05 29.45 C 91.54 29.41 93.04 29.37 94.54 29.35 C 94.62 34.07 94.51 38.80 94.66 43.52 C 93.10 43.47 91.55 43.44 89.99 43.40 C 90.12 38.75 90.07 34.10 90.05 29.45 Z" />
<path fill="#419439" d=" M 24.74 29.87 C 26.22 29.89 27.70 29.91 29.18 29.93 C 29.17 31.71 29.18 33.49 29.20 35.26 C 29.28 39.92 29.32 44.57 29.26 49.22 C 27.78 49.63 26.31 50.05 24.84 50.50 C 24.72 43.62 24.68 36.75 24.74 29.87 Z" />
<path fill="#7cc243" d=" M 37.85 29.71 C 39.32 29.73 40.79 29.76 42.25 29.77 C 42.36 35.31 42.11 40.86 42.54 46.39 L 42.55 46.56 C 40.95 46.78 39.36 47.02 37.77 47.25 C 37.69 43.26 37.69 39.27 37.78 35.29 C 37.81 33.43 37.84 31.57 37.85 29.71 Z" />
<path fill="#80c342" d=" M 116.16 30.36 C 117.63 30.33 119.10 30.31 120.58 30.29 C 120.66 35.68 120.66 41.06 120.56 46.45 C 119.08 46.18 117.60 45.92 116.11 45.69 C 116.29 40.58 116.21 35.47 116.16 30.36 Z" />
<path fill="#84c441" d=" M 133.44 30.65 C 134.91 30.49 136.40 30.35 137.88 30.21 C 137.76 36.92 137.85 43.64 137.77 50.36 C 136.45 49.97 135.13 49.62 133.80 49.28 C 133.61 44.76 133.71 40.24 133.67 35.72 C 133.62 34.03 133.53 32.34 133.44 30.65 Z" />
<path fill="#00a94f" d=" M 68.28 32.07 C 69.74 32.09 71.20 32.10 72.66 32.12 C 72.62 35.88 72.63 39.63 72.71 43.39 C 71.25 43.44 69.79 43.49 68.33 43.55 C 68.28 39.72 68.23 35.90 68.28 32.07 Z" />
<path fill="#c1d82f" d=" M 29.20 35.26 C 32.06 35.34 34.92 35.35 37.78 35.29 C 37.69 39.27 37.69 43.26 37.77 47.25 C 34.94 47.92 32.09 48.52 29.26 49.22 C 29.32 44.57 29.28 39.92 29.20 35.26 Z" />
<path fill="#00a94f" d=" M 124.83 35.76 C 127.77 35.74 130.72 35.72 133.67 35.72 C 133.71 40.24 133.61 44.76 133.80 49.28 C 130.84 48.55 127.86 47.86 124.87 47.26 C 124.82 43.42 124.81 39.59 124.83 35.76 Z" />
<path fill="#00a94f" d=" M 16.12 39.16 C 17.59 39.12 19.05 39.09 20.51 39.05 C 20.58 43.19 20.57 47.32 20.67 51.46 L 20.67 51.80 C 19.14 52.33 17.60 52.85 16.06 53.37 C 16.24 48.64 16.18 43.90 16.12 39.16 Z" />
<path fill="#387c2c" d=" M 142.26 39.04 C 143.73 39.11 145.21 39.17 146.69 39.22 C 146.55 43.87 146.55 48.53 146.69 53.18 C 145.19 52.72 143.69 52.26 142.20 51.78 C 142.31 47.54 142.31 43.29 142.26 39.04 Z" />
</svg>
