<?xml version="1.0" encoding="UTF-8" ?>
<!DOCTYPE svg PUBLIC "-//W3C//DTD SVG 1.1//EN" "http://www.w3.org/Graphics/SVG/1.1/DTD/svg11.dtd">
<svg width="399pt" height="123pt" viewBox="0 0 399 123" version="1.1" xmlns="http://www.w3.org/2000/svg">
<path fill="#ffffff" d=" M 0.00 0.00 L 399.00 0.00 L 399.00 123.00 L 0.00 123.00 L 0.00 0.00 Z" />
<path fill="#6bbd45" d=" M 215.51 1.78 C 217.47 1.75 219.43 1.72 221.39 1.68 C 221.57 11.85 221.58 22.03 221.39 32.20 C 220.98 41.12 221.34 50.04 221.15 58.96 C 219.22 58.84 217.28 58.73 215.35 58.60 C 215.39 52.40 215.32 46.21 215.46 40.01 C 215.56 27.27 215.46 14.52 215.51 1.78 Z" />
<path fill="#427a3a" d=" M 249.51 15.51 C 251.50 15.51 253.49 15.51 255.49 15.51 C 255.50 26.43 255.46 37.35 255.50 48.27 C 255.56 53.33 255.59 58.40 255.59 63.47 C 253.55 63.08 251.51 62.70 249.47 62.33 C 249.58 55.31 249.54 48.28 249.52 41.26 C 249.50 32.68 249.52 24.09 249.51 15.51 Z" />
<path fill="#15a6bb" d=" M 204.35 17.76 C 206.08 17.75 207.81 17.68 209.54 17.82 C 210.78 18.86 210.03 20.66 210.26 22.04 C 210.18 28.03 210.24 34.03 210.21 40.02 C 210.19 46.14 210.23 52.27 210.17 58.39 C 208.25 58.28 206.33 58.23 204.40 58.20 C 204.40 49.31 204.44 40.42 204.38 31.53 C 204.32 26.94 204.33 22.35 204.35 17.76 Z" />
<path fill="#15a6bb" d=" M 159.00 18.45 C 160.94 18.46 162.87 18.48 164.81 18.49 C 164.76 25.58 164.90 32.66 164.73 39.74 C 164.54 46.50 164.67 53.27 164.63 60.03 C 162.72 60.27 160.82 60.51 158.91 60.73 C 158.94 50.16 158.85 39.59 158.96 29.03 C 159.01 25.50 159.00 21.98 159.00 18.45 Z" />
<path fill="#15a6bb" d=" M 187.23 25.00 C 189.23 25.00 191.24 25.00 193.25 25.00 C 193.25 27.20 193.26 29.39 193.28 31.59 C 193.33 40.46 193.29 49.34 193.30 58.22 C 191.27 58.25 189.24 58.31 187.22 58.42 C 187.21 53.44 187.21 48.47 187.22 43.50 C 187.24 37.33 187.23 31.17 187.23 25.00 Z" />
<path fill="#15a6bb" d=" M 238.24 25.24 C 240.16 25.23 242.08 25.23 244.00 25.23 C 244.00 30.57 244.00 35.90 244.00 41.24 C 244.00 47.98 244.00 54.71 244.00 61.44 C 242.09 61.18 240.17 60.92 238.26 60.66 L 238.26 60.48 C 238.23 52.76 238.26 45.05 238.25 37.33 C 238.23 33.30 238.22 29.27 238.24 25.24 Z" />
<path fill="#427a3a" d=" M 147.75 29.03 C 151.49 29.03 155.23 29.03 158.96 29.03 C 158.85 39.59 158.94 50.16 158.91 60.73 C 155.19 61.20 151.48 61.79 147.77 62.31 C 147.75 54.98 147.75 47.65 147.75 40.32 C 147.76 36.56 147.76 32.80 147.75 29.03 Z" />
<path fill="#bcd531" d=" M 193.28 31.59 C 196.98 31.46 200.68 31.47 204.38 31.53 C 204.44 40.42 204.40 49.31 204.40 58.20 C 200.70 58.28 197.00 58.28 193.30 58.22 C 193.29 49.34 193.33 40.46 193.28 31.59 Z" />
<path fill="#427a3a" d=" M 221.15 58.96 C 221.34 50.04 220.98 41.12 221.39 32.20 C 223.25 32.23 225.12 32.24 226.99 32.26 C 226.99 33.92 227.00 35.59 227.00 37.26 C 227.00 44.65 226.99 52.04 227.01 59.43 C 225.05 59.27 223.10 59.11 221.15 58.96 Z" />
<path fill="#049b49" d=" M 272.02 33.24 C 274.01 33.24 275.99 33.25 277.99 33.25 C 278.01 39.67 278.00 46.10 278.00 52.53 C 278.00 58.13 278.01 63.74 277.96 69.34 C 275.97 68.70 273.97 68.07 271.97 67.44 C 272.02 58.71 271.99 49.98 272.00 41.25 C 271.99 38.58 272.00 35.91 272.02 33.24 Z" />
<path fill="#6bbd45" d=" M 119.22 34.54 C 121.23 34.52 123.24 34.50 125.26 34.49 C 125.25 36.50 125.25 38.51 125.22 40.51 C 125.21 49.47 124.93 58.45 125.38 67.40 L 125.40 67.74 C 123.32 68.23 121.25 68.81 119.22 69.48 C 119.15 63.81 119.14 58.15 119.22 52.49 C 119.27 46.51 119.27 40.53 119.22 34.54 Z" />
<path fill="#427a3a" d=" M 170.25 36.00 C 174.08 36.00 177.92 36.00 181.75 36.00 C 181.75 38.51 181.75 41.03 181.79 43.54 C 181.90 48.57 181.91 53.60 181.90 58.62 C 177.97 58.86 174.05 59.13 170.13 59.46 C 170.27 52.90 170.18 46.34 170.23 39.77 C 170.24 38.51 170.24 37.26 170.25 36.00 Z" />
<path fill="#bcd531" d=" M 227.00 37.26 C 230.75 37.23 234.50 37.22 238.25 37.33 C 238.26 45.05 238.23 52.76 238.26 60.48 C 234.50 60.27 230.76 59.80 227.01 59.43 C 226.99 52.04 227.00 44.65 227.00 37.26 Z" />
<path fill="#6bbd45" d=" M 164.73 39.74 C 166.56 39.75 168.39 39.76 170.23 39.77 C 170.18 46.34 170.27 52.90 170.13 59.46 C 168.29 59.64 166.46 59.83 164.63 60.03 C 164.67 53.27 164.54 46.50 164.73 39.74 Z" />
<path fill="#049b49" d=" M 210.21 40.02 C 211.96 40.01 213.70 40.01 215.46 40.01 C 215.32 46.21 215.39 52.40 215.35 58.60 C 213.62 58.53 211.89 58.47 210.17 58.39 C 210.23 52.27 210.19 46.14 210.21 40.02 Z" />
<path fill="#427a3a" d=" M 125.22 40.51 C 127.14 40.51 129.05 40.51 130.97 40.51 C 130.97 42.93 130.97 45.34 130.97 47.76 C 130.95 53.85 130.96 59.93 130.96 66.02 C 129.11 66.50 127.25 66.96 125.38 67.40 C 124.93 58.45 125.21 49.47 125.22 40.51 Z" />
<path fill="#6bbd45" d=" M 142.01 40.22 C 143.92 40.25 145.83 40.28 147.75 40.32 C 147.75 47.65 147.75 54.98 147.77 62.31 L 147.77 62.51 C 145.84 62.82 143.91 63.15 141.99 63.49 C 142.01 58.25 142.00 53.01 142.00 47.77 C 141.99 45.25 142.00 42.74 142.01 40.22 Z" />
<path fill="#6bbd45" d=" M 244.00 41.24 C 245.84 41.25 247.68 41.25 249.52 41.26 C 249.54 48.28 249.58 55.31 249.47 62.33 C 247.64 62.04 245.82 61.74 244.00 61.44 C 244.00 54.71 244.00 47.98 244.00 41.24 Z" />
<path fill="#6bbd45" d=" M 266.51 41.26 C 268.33 41.25 270.17 41.25 272.00 41.25 C 271.99 49.98 272.02 58.71 271.97 67.44 C 269.94 66.88 267.89 66.39 265.82 65.99 L 265.85 65.73 C 266.85 59.95 266.17 54.08 266.45 48.26 C 266.49 45.92 266.50 43.59 266.51 41.26 Z" />
<path fill="#049b49" d=" M 181.79 43.54 C 183.60 43.52 185.41 43.50 187.22 43.50 C 187.21 48.47 187.21 53.44 187.22 58.42 C 185.44 58.49 183.67 58.54 181.90 58.62 C 181.91 53.60 181.90 48.57 181.79 43.54 Z" />
<path fill="#bcd531" d=" M 130.97 47.76 C 134.64 47.74 138.32 47.74 142.00 47.77 C 142.00 53.01 142.01 58.25 141.99 63.49 C 138.31 64.30 134.61 65.07 130.96 66.02 C 130.96 59.93 130.95 53.85 130.97 47.76 Z" />
<path fill="#049b49" d=" M 255.50 48.27 C 259.15 48.25 262.80 48.25 266.45 48.26 C 266.17 54.08 266.85 59.95 265.85 65.73 C 262.43 64.98 259.02 64.19 255.59 63.47 C 255.59 58.40 255.56 53.33 255.50 48.27 Z" />
<path fill="#049b49" d=" M 113.75 52.52 C 115.57 52.51 117.39 52.50 119.22 52.49 C 119.14 58.15 119.15 63.81 119.22 69.48 C 117.40 70.16 115.57 70.82 113.75 71.47 C 113.75 65.15 113.75 58.83 113.75 52.52 Z" />
<path fill="#427a3a" d=" M 278.00 52.53 C 279.90 52.50 281.80 52.48 283.71 52.46 C 283.80 58.76 283.74 65.07 283.75 71.38 C 281.82 70.70 279.89 70.02 277.96 69.34 C 278.01 63.74 278.00 58.13 278.00 52.53 Z" />
<path fill="#427a3a" d=" M 73.46 83.73 C 78.64 82.60 84.42 83.07 88.89 86.12 C 94.51 89.69 98.13 96.27 97.79 102.97 C 97.88 111.50 91.21 119.23 83.01 121.08 C 72.66 123.82 60.70 116.59 59.27 105.78 C 57.26 96.14 63.96 85.98 73.46 83.73 Z" />
<path fill="#427a3a" d=" M 198.44 83.74 C 202.94 82.80 207.89 82.86 212.06 85.00 C 219.08 88.42 223.78 96.25 222.90 104.09 C 222.35 113.27 214.16 121.19 204.99 121.51 C 194.85 122.69 184.57 114.39 184.25 104.06 C 183.12 94.96 189.67 85.98 198.44 83.74 Z" />
<path fill="#427a3a" d=" M 283.45 83.56 C 288.36 82.70 293.73 83.18 297.96 86.01 C 304.03 89.74 307.74 96.96 306.98 104.09 C 306.52 113.67 297.58 121.68 288.08 121.55 C 278.62 122.13 269.31 114.58 268.42 105.04 C 266.76 95.35 273.86 85.40 283.45 83.56 Z" />
<path fill="#427a3a" d=" M 365.70 91.75 C 367.11 87.79 370.97 85.16 374.93 84.19 C 381.91 82.63 389.14 84.73 395.17 88.30 C 394.27 90.33 393.32 92.35 392.32 94.34 C 387.42 92.21 381.84 89.78 376.47 91.63 C 374.37 92.16 373.45 95.27 375.71 96.29 C 381.99 99.81 390.78 99.43 395.20 105.88 C 397.88 111.33 394.41 118.08 388.90 120.07 C 381.47 122.87 372.40 121.78 365.94 117.16 C 366.12 114.98 366.58 112.83 366.98 110.68 C 372.31 112.83 378.13 115.33 383.96 113.83 C 385.95 113.43 387.86 111.39 386.72 109.31 C 381.43 105.47 374.19 105.87 368.93 101.89 C 365.64 99.79 364.38 95.36 365.70 91.75 Z" />
<path fill="#427a3a" d=" M 1.63 84.51 C 4.47 84.50 7.30 84.50 10.14 84.50 C 13.71 91.32 16.30 98.65 20.31 105.23 C 23.05 99.53 25.46 93.66 28.40 88.06 C 28.82 88.04 29.66 87.99 30.08 87.96 C 33.33 93.55 35.31 99.79 38.63 105.36 C 41.81 98.40 45.19 91.55 48.28 84.56 C 51.17 84.49 54.05 84.48 56.94 84.52 C 51.16 96.61 45.25 108.64 39.45 120.72 C 38.98 120.72 38.04 120.72 37.57 120.73 C 34.82 115.05 31.99 109.42 29.39 103.68 C 26.28 109.25 24.05 115.29 20.79 120.76 C 18.98 121.45 18.53 119.42 17.85 118.25 C 12.51 106.97 6.99 95.78 1.63 84.51 Z" />
<path fill="#427a3a" d=" M 105.75 84.50 C 112.15 84.57 118.56 84.35 124.95 84.58 C 132.79 85.10 138.92 93.27 137.24 100.94 C 136.60 104.99 133.89 108.36 130.53 110.57 C 133.78 114.03 137.27 117.27 140.51 120.74 C 136.73 120.76 132.95 120.75 129.18 120.77 C 126.38 118.03 123.64 115.25 120.87 112.50 C 118.41 112.50 115.96 112.50 113.51 112.50 C 113.50 115.25 113.50 118.01 113.49 120.76 C 110.91 120.75 108.33 120.75 105.76 120.75 C 105.74 108.67 105.75 96.59 105.75 84.50 Z" />
<path fill="#427a3a" d=" M 147.50 84.50 C 150.17 84.50 152.83 84.49 155.50 84.50 C 155.52 89.44 155.46 94.38 155.54 99.32 C 160.95 94.73 165.42 89.11 170.86 84.58 C 174.50 84.33 178.15 84.54 181.79 84.54 C 176.08 90.37 170.27 96.09 164.51 101.87 C 170.73 108.19 177.13 114.35 183.27 120.75 C 179.57 120.76 175.88 120.74 172.19 120.78 C 166.59 115.26 161.07 109.67 155.50 104.13 C 155.50 109.67 155.50 115.21 155.50 120.75 C 152.85 120.75 150.20 120.76 147.55 120.80 C 147.43 108.70 147.52 96.60 147.50 84.50 Z" />
<path fill="#427a3a" d=" M 230.50 84.50 C 236.66 84.54 242.82 84.41 248.97 84.53 C 255.30 84.67 261.05 89.76 261.98 96.01 C 263.42 102.86 258.71 110.22 251.95 111.91 C 247.47 112.95 242.82 112.37 238.26 112.49 C 238.25 115.24 238.25 117.99 238.26 120.75 C 235.66 120.76 233.06 120.75 230.46 120.70 C 230.55 108.63 230.47 96.57 230.50 84.50 Z" />
<path fill="#427a3a" d=" M 315.00 84.50 C 317.66 84.50 320.33 84.50 323.00 84.50 C 323.00 94.00 323.00 103.50 323.00 113.00 C 328.08 113.00 333.17 113.00 338.25 113.00 C 338.25 115.59 338.25 118.17 338.24 120.76 C 330.49 120.75 322.75 120.75 315.01 120.76 C 314.99 108.67 315.01 96.59 315.00 84.50 Z" />
<path fill="#427a3a" d=" M 348.22 84.53 C 350.81 84.50 353.40 84.49 356.00 84.49 C 355.98 96.59 356.03 108.68 355.98 120.77 C 353.40 120.76 350.82 120.75 348.25 120.75 C 348.23 108.67 348.28 96.60 348.22 84.53 Z" />
<path fill="#ffffff" d=" M 74.47 91.71 C 81.34 88.82 89.68 94.60 89.52 102.00 C 90.04 108.67 83.56 114.68 76.95 113.64 C 71.39 112.86 66.96 107.59 67.25 101.96 C 67.33 97.50 70.30 93.29 74.47 91.71 Z" />
<path fill="#ffffff" d=" M 200.34 91.50 C 206.75 89.26 214.04 94.26 214.60 100.93 C 215.70 107.62 209.69 114.22 202.93 113.72 C 197.44 113.40 192.52 108.59 192.47 103.01 C 191.95 97.95 195.54 92.96 200.34 91.50 Z" />
<path fill="#ffffff" d=" M 284.40 91.50 C 291.14 89.12 298.86 94.85 298.76 101.92 C 299.42 109.14 291.74 115.53 284.78 113.31 C 278.48 111.71 274.79 104.24 277.23 98.24 C 278.45 95.08 281.13 92.46 284.40 91.50 Z" />
<path fill="#ffffff" d=" M 238.25 92.50 C 242.23 92.66 246.27 92.14 250.21 92.76 C 254.72 94.29 255.68 101.04 251.46 103.49 C 247.39 105.46 242.61 104.13 238.24 104.48 C 238.25 100.49 238.25 96.50 238.25 92.50 Z" />
<path fill="#ffffff" d=" M 113.51 92.51 C 117.62 92.73 121.87 91.97 125.90 92.93 C 130.56 94.86 130.62 102.07 125.91 103.97 C 121.89 105.06 117.63 104.28 113.51 104.49 C 113.50 100.49 113.50 96.50 113.51 92.51 Z" />
</svg>
